<svg id="Layer_1" data-name="Layer 1" xmlns="http://www.w3.org/2000/svg" xmlns:xlink="http://www.w3.org/1999/xlink" viewBox="0 0 700 550"><defs><clipPath id="clip-path"><rect x="406.10234" y="151.79075" width="74.06799" height="90.26401" fill="none"/></clipPath><clipPath id="clip-path-2"><rect x="482.40034" y="259.68473" width="10.34" height="33.96002" fill="none"/></clipPath></defs><title>igloo</title><path d="M192.71924,429.51664c-33.099-24.874-65.439-73.768-54.988-114.895,8.945-35.2,42.4-37.811,52.407-79.405,8.446-35.106-11.687-48.627-7.147-77.022,11.344-70.942,159.859-129.51,203.278-89.728,31.572,28.928-8.879,94.787,26.098,123.643,33.332,27.496,84.939-20.286,120.57394,3.738,50.012,33.719,41.976,187.855-37.387,241.147-24.508,16.457-64.008,16.89-143.006,17.758-83.405.916-125.807.332-159.829-25.236" fill="#edf2fa"/><path d="M510.65983,277.12193a165.135,165.135,0,1,1-165.135-165.135,165.13571,165.13571,0,0,1,165.135,165.135" fill="#d5e5f2"/><path d="M503.81294,324.28715l-.81305-.923c-20.517.318-103.098-30.441-192.43195-25.248-67.243,3.91-105.133,26.094-119.762,36.827a165.18329,165.18329,0,0,0,313.007-10.656" fill="#fff"/><path d="M265.40965,205.90824a3.87149,3.87149,0,1,0-3.871-3.872,3.915,3.915,0,0,0,3.871,3.872" fill="#fff"/><path d="M378.95845,152.64655a3.87149,3.87149,0,1,0-3.872-3.872,3.91537,3.91537,0,0,0,3.872,3.872" fill="#fff"/><path d="M334.24855,178.462c3.861,0,3.867-6,0-6-3.86,0-3.867,6,0,6" fill="#fff"/><path d="M297.76906,168.88184a1.5009,1.5009,0,0,0,0-3,1.5009,1.5009,0,0,0,0,3" fill="#fff"/><path d="M220.20454,193.28034a1.50088,1.50088,0,0,0,0-3,1.50088,1.50088,0,0,0,0,3" fill="#fff"/><path d="M217.28463,266.75785a1.50088,1.50088,0,0,0,0-3,1.50088,1.50088,0,0,0,0,3" fill="#fff"/><path d="M417.92524,222.77155a1.5009,1.5009,0,0,0,0-3,1.5009,1.5009,0,0,0,0,3" fill="#fff"/><path d="M464.52293,247.17384a1.50088,1.50088,0,0,0,0-3,1.50088,1.50088,0,0,0,0,3" fill="#fff"/><path d="M441.47413,164.93363a3.872,3.872,0,1,0-3.871-3.872,3.91558,3.91558,0,0,0,3.871,3.872" fill="#e2e2e2"/><path d="M435.23585,249.54594a3.872,3.872,0,1,0-3.872-3.872,3.91559,3.91559,0,0,0,3.872,3.872" fill="#fff"/><path d="M355.06984,216.74226c4.154,0,4.161-6.455,0-6.455-4.153,0-4.16,6.455,0,6.455" fill="#fff"/><path d="M248.99956,253.14353c3.86,0,3.867-6,0-6-3.861,0-3.867,6,0,6" fill="#fff"/><path d="M396.51213,189.71006a1.5009,1.5009,0,0,0,0-3,1.5009,1.5009,0,0,0,0,3" fill="#fff"/><path d="M345.51805,150.27445a1.5009,1.5009,0,0,0,0-3,1.5009,1.5009,0,0,0,0,3" fill="#fff"/><path d="M302.96434,203.53614a1.50088,1.50088,0,0,0,0-3,1.50088,1.50088,0,0,0,0,3" fill="#fff"/><path d="M255.79933,158.17094a1.50088,1.50088,0,0,0,0-3,1.50088,1.50088,0,0,0,0,3" fill="#fff"/><path d="M243.46824,290.66316a1.50088,1.50088,0,0,0,0-3,1.50088,1.50088,0,0,0,0,3" fill="#fff"/><path d="M196.13814,232.85355a1.50088,1.50088,0,0,0,0-3,1.50088,1.50088,0,0,0,0,3" fill="#fff"/><path d="M414.79445,143.88874a1.50088,1.50088,0,0,0,0-3,1.50088,1.50088,0,0,0,0,3" fill="#fff"/><path d="M464.52293,187.32914a1.50088,1.50088,0,0,0,0-3,1.50088,1.50088,0,0,0,0,3" fill="#fff"/><path d="M446.39116,298.36436a1.50088,1.50088,0,0,0,0-3,1.50088,1.50088,0,0,0,0,3" fill="#fff"/><path d="M290.37935,139.32035c4.153,0,4.16-6.456,0-6.456-4.154,0-4.161,6.456,0,6.456" fill="#fff"/><path d="M442.75535,209.10554c4.153,0,4.16-6.455,0-6.455-4.154,0-4.161,6.455,0,6.455" fill="#fff"/><path d="M464.52293,283.37306c4.153,0,4.16-6.455,0-6.455-4.153,0-4.16,6.455,0,6.455" fill="#fff"/><path d="M212.91064,312.82325c4.153,0,4.16-6.455,0-6.455-4.153,0-4.16,6.455,0,6.455" fill="#fff"/><path d="M240.67424,477.77544a69.20589,69.20589,0,0,1,1.536-15.308,114.89187,114.89187,0,0,1,3.951-14.476,113.00031,113.00031,0,0,1,5.779-13.849,68.47263,68.47263,0,0,1,8.215-13.01,68.37526,68.37526,0,0,1-1.524,15.312,112.9529,112.9529,0,0,1-3.962,14.473,115.18505,115.18505,0,0,1-5.79,13.844,69.13214,69.13214,0,0,1-8.205,13.014" fill="#c97e58"/><path d="M340.358,442.16805q-1.35-.04048-2.695-.102-.70955-.033-1.416-.074-1.287-.0705-2.566-.162c-.457-.032-.914-.063-1.37-.099-.957-.077-1.91-.164-2.862-.255-.333-.033-.667-.06-.999-.094q-1.911-.195-3.806-.435c-.303-.038-.603-.083-.905-.123q-1.45051-.1905-2.892-.404c-.452-.067-.903-.141-1.353-.212q-1.23-.195-2.452-.406c-.474-.083-.947-.166-1.418-.253q-1.23449-.22652-2.46-.471c-.434-.087-.868-.17-1.301-.26q-1.563-.32248-3.115-.677c-.195-.044-.389-.084-.583-.129q-1.80749-.4185-3.599-.878c-.423-.109-.843-.223-1.264-.334q-1.188-.3135-2.369-.641-.72451-.204-1.447-.414-1.09652-.318-2.187-.65c-.485-.149-.971-.296-1.455-.449-.76-.24-1.517-.488-2.273-.738-.429-.142-.859-.28-1.286-.426q-1.69647-.576-3.376-1.188c-.379-.139-.755-.285-1.133-.427-.775-.289-1.55-.581-2.319-.881-.497-.194-.992-.395-1.487-.593q-.97351-.393-1.942-.794c-.518-.216-1.033-.434-1.549-.656-.624-.267-1.245-.541-1.866-.816-.512-.227-1.025-.452-1.533-.685-.662-.301-1.319-.612-1.976-.922-.605-.287-1.211-.573-1.812-.866-.869-.423-1.734-.85-2.594-1.289-.528-.268-1.051-.546-1.575-.82-.55-.287-1.099-.574-1.645-.867-.554-.298-1.103-.6-1.653-.904q-.762-.42149-1.521-.85-.83848-.47551-1.674-.958c-.484-.281-.965-.569-1.446-.856-.564-.336-1.13-.669-1.689-1.011-.425-.26-.844-.527-1.266-.79q-1.68-1.05-3.335-2.137c-.387-.255-.775-.506-1.159-.764-.599-.4-1.192-.809-1.785-1.218q-.582-.4005-1.161-.804-.894-.6285-1.78-1.268c-.363-.262-.723-.525-1.084-.79-.608-.447-1.215-.894-1.818-1.349-.283-.214-.562-.432-.844-.647q-3.2655-2.5005-6.403-5.157c-.229-.194-.46-.386-.688-.581q-.9435-.81-1.876-1.635c-.252-.224-.504-.447-.756-.672q-.939-.837-1.866-1.69c-.205-.189-.407-.379-.611-.57q-4.40553-4.0995-8.508-8.512c-.135-.146-.27-.289-.405-.436q-.942-1.02-1.865-2.057c-.137-.152-.273-.306-.408-.459q-.95851-1.0815-1.899-2.178l-.06-.071q-4.14-4.848-7.906-10.012c-.063-.088-.128-.176-.191-.263q-.8985-1.2375-1.776-2.493c-.031-.045-.062-.091-.094-.136q-4.6125-6.6225-8.582-13.702c-.018-.029-.033-.06-.05-.089a164.09467,164.09467,0,0,1-14.079-33.322l-.003-.01.813-.923c6.574.102,19.527-2.988,37.024-7.062a165.2769,165.2769,0,0,0,140.451,124.746q-7.17751.867-14.535,1.113-.435.0135-.871.026c-1.527.043-3.057.07-4.594.07-1.313,0-2.623-.02-3.929-.05-.414-.01-.825-.026-1.238-.039" fill="#f0f5f9"/><rect x="454.03132" y="315.10374" width="8.85001" height="23.04102" fill="#eb9a59"/><path d="M454.03175,321.95414a3.31573,3.31573,0,0,1,1.231,2.602,3.09117,3.09117,0,1,1,6.173,0,3.30051,3.30051,0,0,1,1.446-2.759v-9.135h-8.85Z" fill="#d17f42"/><path d="M489.21434,317.14063a3.17649,3.17649,0,0,0-3.086,3.26,3.0911,3.0911,0,1,0-6.173,0,3.0916,3.0916,0,1,0-6.174,0,3.09064,3.09064,0,1,0-6.172,0,3.09112,3.09112,0,1,0-6.173,0,3.09112,3.09112,0,1,0-6.173,0,3.09112,3.09112,0,1,0-6.173,0,3.09158,3.09158,0,1,0-6.174,0,3.09112,3.09112,0,1,0-6.173,0,3.09112,3.09112,0,1,0-6.173,0,3.17584,3.17584,0,0,0-3.086-3.26c-1.705,0-3.296,3.26-3.296,3.26l33.616-72.774s35.327,73.373,34.918,72.774c0-.005-1.803-3.26-3.508-3.26" fill="#82c66d"/><path d="M439.72505,300.93363a3.17752,3.17752,0,0,1,3.087,3.261,3.09117,3.09117,0,1,1,6.173,0,3.09117,3.09117,0,1,1,6.173,0,3.0907,3.0907,0,1,1,6.172,0,3.09165,3.09165,0,1,1,6.174,0,3.09117,3.09117,0,1,1,6.173,0,3.09117,3.09117,0,1,1,6.173,0,3.17752,3.17752,0,0,1,3.087-3.261,1.51519,1.51519,0,0,1,.554.113c-10.347-21.559-25.687-53.42-25.687-53.42l-24.711,53.494c3.054-.596,3.546,1.402,3.546,3.074a3.17739,3.17739,0,0,1,3.086-3.261" fill="#4ca258"/><polygon points="467.604 222.001 467.584 222.001 467.584 221.475 467.604 222.001" fill="#0b1436"/><polygon points="461.433 222.001 461.411 222.001 461.411 221.475 461.433 222.001" fill="#0b1436"/><path d="M432.34425,287.086c3.726-1.091,4.295,1.089,4.295,2.89a3.09117,3.09117,0,1,1,6.173,0,3.09117,3.09117,0,1,1,6.173,0,3.0907,3.0907,0,1,1,6.172,0,3.09117,3.09117,0,1,1,6.173,0,3.09163,3.09163,0,1,1,6.174,0,3.09117,3.09117,0,1,1,6.173,0,3.09117,3.09117,0,1,1,6.173,0,3.17753,3.17753,0,0,1,3.087-3.261c1.704,0,3.104,3.261,3.104,3.261.004,0-27.903-59.906-27.903-59.906l-26.486,57.337-1.187,2.569s1.295-2.718,1.879-2.89" fill="#82c66d"/><path d="M464.38713,272.88484a3.16192,3.16192,0,0,1,3.072,3.245,3.07614,3.07614,0,1,1,6.143,0,3.16255,3.16255,0,0,1,3.072-3.245,2.97743,2.97743,0,0,1,2.036,1.348c-7.793-16.73-19.172-41.157-20.453-43.907l-9.846,20.801-10.65,23.055a2.946,2.946,0,0,1,2.054-1.297,3.16175,3.16175,0,0,1,3.071,3.245,3.0766,3.0766,0,1,1,6.144,0,3.07567,3.07567,0,1,1,6.142,0,3.07662,3.07662,0,1,1,6.144,0,3.16175,3.16175,0,0,1,3.071-3.245" fill="#4ca258"/><path d="M479.892,264.78425c.256.374-21.514-46.059-21.514-46.059l-21.634,45.706s1.375-2.892,3.071-2.892a3.16175,3.16175,0,0,1,3.071,3.245,3.07662,3.07662,0,1,1,6.144,0,3.07567,3.07567,0,1,1,6.142,0,3.0766,3.0766,0,1,1,6.144,0,3.07614,3.07614,0,1,1,6.143,0,3.07614,3.07614,0,1,1,6.143,0,3.16257,3.16257,0,0,1,3.072-3.245c1.697,0,3.218,3.242,3.218,3.245" fill="#82c66d"/><path d="M470.68013,245.73835a1.23462,1.23462,0,0,1,.383.073c-5.938-12.694-12.685-27.086-12.685-27.086l-12.818,27.079a1.50861,1.50861,0,0,1,.428-.066,3.1586,3.1586,0,0,1,3.076,3.005c.006.084.011.169.011.255q0-.129.009-.255a3.07734,3.07734,0,0,1,6.153,0c.005.084.009.169.009.255,0-.086.005-.171.011-.255a3.07786,3.07786,0,0,1,6.154,0c.006.084.01.169.01.255,0-.086.005-.171.011-.255a3.07633,3.07633,0,0,1,6.151,0c.007.084.011.169.011.255,0-.086.004-.171.011-.255a3.15845,3.15845,0,0,1,3.075-3.005" fill="#4ca258"/><path d="M473.62456,240.98444c-.097-.324-1.906-2.277-2.944-2.277a3.16079,3.16079,0,0,0-3.076,3.005c-.006.084-.01.168-.01.255,0-.087-.004-.171-.011-.255a3.07633,3.07633,0,0,0-6.151,0c-.006.084-.011.168-.011.255,0-.087-.004-.171-.01-.255a3.07786,3.07786,0,0,0-6.154,0c-.006.084-.011.168-.011.255,0-.087-.004-.171-.01-.255a3.07684,3.07684,0,0,0-6.152,0c-.006.084-.01.168-.01.255,0-.087-.005-.171-.011-.255a3.15938,3.15938,0,0,0-3.076-3.005c-1.622,0-3.332,3.005-3.332,3.005l15.656-33.077,14.886,31.446.002.005Z" fill="#82c66d"/><path d="M486.12843,320.40046a3.17644,3.17644,0,0,1,3.086-3.26c1.705,0,3.508,3.255,3.508,3.26.218.318-9.634-20.204-18.926-39.533-.049,7.175-.34,14.311-1.269,15.594,0,0-.488,7.511,7.639,22.76a3.09409,3.09409,0,0,1,2.875-2.081,3.17663,3.17663,0,0,1,3.087,3.26" fill="#4ca258"/><path d="M485.91945,289.71394c.08.172.122.262.122.262s-.043-.1-.122-.262" fill="#4da258"/><path d="M485.91945,289.71394c-1.151-2.477-10.288-22.092-17.774-38.162a34.64326,34.64326,0,0,0,5.457,13.232s.463,15.012-.013,24.434a3.36715,3.36715,0,0,1,.088.758,3.09117,3.09117,0,1,1,6.173,0,3.17752,3.17752,0,0,1,3.087-3.261c1.408,0,2.608,2.227,2.982,2.999" fill="#4ca258"/><path d="M467.58345,241.712a36.701,36.701,0,0,0,4.196,20.109,3.255,3.255,0,0,1,1.823,2.963,3.16257,3.16257,0,0,1,3.072-3.245c1.696,0,3.218,3.242,3.218,3.245.207.303-14.028-30.084-19.452-41.658,1.85,8.34,7.143,18.586,7.143,18.586" fill="#4ca258"/><path d="M467.60493,241.712a3.15913,3.15913,0,0,1,3.075-3.005c1.038,0,2.848,1.953,2.945,2.277l-.425-.898-.002-.005-14.612-30.866c.375,1.002,1.025,3.554,1.236,9.511.229,6.479,4.572,16.345,6.659,20.739a3.31157,3.31157,0,0,1,1.103,2.247c.006.085.01.169.01.256,0-.087.004-.171.011-.256" fill="#4ca258"/><rect x="417.59334" y="309.44474" width="8.849" height="23.04201" fill="#eb9a59"/><path d="M417.59324,316.29594a3.31594,3.31594,0,0,1,1.23,2.601,3.09117,3.09117,0,1,1,6.173,0,3.29726,3.29726,0,0,1,1.446-2.758v-9.136h-8.849Z" fill="#d17f42"/><path d="M452.77583,311.48145a3.17753,3.17753,0,0,0-3.087,3.261,3.09117,3.09117,0,1,0-6.173,0,3.09117,3.09117,0,1,0-6.173,0,3.09117,3.09117,0,1,0-6.173,0,3.09117,3.09117,0,1,0-6.173,0,3.09117,3.09117,0,1,0-6.173,0,3.09116,3.09116,0,1,0-6.173,0,3.09117,3.09117,0,1,0-6.173,0,3.09165,3.09165,0,1,0-6.174,0,3.09117,3.09117,0,1,0-6.173,0,3.17654,3.17654,0,0,0-3.085-3.261c-1.706,0-3.297,3.261-3.297,3.261l33.617-72.775s35.326,73.373,34.918,72.775c0-.005-1.804-3.261-3.508-3.261" fill="#82c66d"/><path d="M403.28663,295.27546a3.17649,3.17649,0,0,1,3.086,3.26,3.09111,3.09111,0,1,1,6.173,0,3.09112,3.09112,0,1,1,6.173,0,3.09112,3.09112,0,1,1,6.173,0,3.09112,3.09112,0,1,1,6.173,0,3.09112,3.09112,0,1,1,6.173,0,3.09112,3.09112,0,1,1,6.173,0,3.17727,3.17727,0,0,1,3.087-3.26,1.51076,1.51076,0,0,1,.554.113c-10.346-21.56-25.686-53.421-25.686-53.421l-24.712,53.495c3.054-.596,3.546,1.401,3.546,3.073a3.17664,3.17664,0,0,1,3.087-3.26" fill="#4ca258"/><polygon points="431.166 216.343 431.145 216.343 431.145 215.817 431.166 216.343" fill="#0b1436"/><polygon points="424.992 216.343 424.972 216.343 424.972 215.817 424.992 216.343" fill="#0b1436"/><path d="M395.90474,281.42774c3.727-1.092,4.295,1.089,4.295,2.889a3.09112,3.09112,0,1,1,6.173,0,3.09112,3.09112,0,1,1,6.173,0,3.09064,3.09064,0,1,1,6.172,0,3.09159,3.09159,0,1,1,6.174,0,3.0911,3.0911,0,1,1,6.173,0,3.09112,3.09112,0,1,1,6.173,0,3.09112,3.09112,0,1,1,6.173,0,3.17726,3.17726,0,0,1,3.087-3.26c1.704,0,3.104,3.26,3.104,3.26.004,0-27.903-59.905-27.903-59.905l-26.485,57.336-1.187,2.569s1.294-2.718,1.878-2.889" fill="#82c66d"/><path d="M427.94874,267.22663a3.16088,3.16088,0,0,1,3.071,3.244,3.07657,3.07657,0,1,1,6.144,0,3.16088,3.16088,0,0,1,3.071-3.244,2.97735,2.97735,0,0,1,2.036,1.348c-7.793-16.73-19.172-41.157-20.453-43.907l-9.846,20.8-10.649,23.055a2.94278,2.94278,0,0,1,2.053-1.296,3.16171,3.16171,0,0,1,3.072,3.244,3.07609,3.07609,0,1,1,6.143,0,3.07608,3.07608,0,1,1,6.143,0,3.07609,3.07609,0,1,1,6.143,0,3.16171,3.16171,0,0,1,3.072-3.244" fill="#4ca258"/><path d="M443.45265,259.125c.256.375-21.514-46.059-21.514-46.059l-21.634,45.707s1.375-2.892,3.071-2.892a3.16167,3.16167,0,0,1,3.072,3.244,3.07609,3.07609,0,1,1,6.143,0,3.07607,3.07607,0,1,1,6.143,0,3.07609,3.07609,0,1,1,6.143,0,3.07609,3.07609,0,1,1,6.143,0,3.07656,3.07656,0,1,1,6.144,0,3.16085,3.16085,0,0,1,3.071-3.244c1.697,0,3.218,3.241,3.218,3.244" fill="#82c66d"/><path d="M434.24165,240.07914a1.21487,1.21487,0,0,1,.383.074c-5.939-12.694-12.686-27.087-12.686-27.087l-12.818,27.079a1.5152,1.5152,0,0,1,.429-.066,3.15921,3.15921,0,0,1,3.075,3.005c.007.085.011.169.011.256,0-.087.003-.171.01-.256a3.07684,3.07684,0,0,1,6.152,0c.006.085.01.169.01.256,0-.087.004-.171.01-.256a3.07786,3.07786,0,0,1,6.154,0c.006.085.011.169.011.256,0-.087.004-.171.01-.256a3.07684,3.07684,0,0,1,6.152,0c.006.085.01.169.01.256,0-.087.005-.171.011-.256a3.1594,3.1594,0,0,1,3.076-3.005" fill="#4ca258"/><path d="M437.185,235.32624c-.097-.324-1.905-2.277-2.943-2.277a3.16024,3.16024,0,0,0-3.077,3.005c-.005.084-.01.168-.01.254,0-.086-.004-.17-.01-.254a3.07684,3.07684,0,0,0-6.152,0c-.006.084-.01.168-.01.254,0-.086-.005-.17-.011-.254a3.07786,3.07786,0,0,0-6.154,0c-.006.084-.01.168-.01.254,0-.086-.005-.17-.011-.254a3.07633,3.07633,0,0,0-6.151,0c-.007.084-.011.168-.011.254,0-.086-.004-.17-.011-.254a3.15844,3.15844,0,0,0-3.075-3.005c-1.622,0-3.333,3.005-3.333,3.005l15.657-33.077,14.885,31.446.002.004Z" fill="#82c66d"/><path d="M449.06368,320.401a3.1775,3.1775,0,0,1,3.087-3.261c1.704,0,3.508,3.256,3.508,3.261.217.317-9.14315-19.18187-18.43514-38.51088-.049,7.175-.83649,12.41012-1.76548,13.69412,0,0-.48337,8.38878,7.64364,23.63676a3.0965,3.0965,0,0,1,2.875-2.081,3.17752,3.17752,0,0,1,3.087,3.261" fill="#4ca258"/><path d="M449.48094,284.05573c.08.171.121.261.121.261s-.043-.1-.121-.261" fill="#4da258"/><path d="M449.48094,284.05573c-1.152-2.478-10.289-22.092-17.775-38.163a34.663,34.663,0,0,0,5.458,13.232s.462,15.013-.013,24.434a3.4402,3.4402,0,0,1,.087.758,3.09112,3.09112,0,1,1,6.173,0,3.17727,3.17727,0,0,1,3.087-3.26c1.409,0,2.609,2.226,2.983,2.999" fill="#4ca258"/><path d="M431.145,236.05375a36.70644,36.70644,0,0,0,4.195,20.109,3.25546,3.25546,0,0,1,1.824,2.962,3.16085,3.16085,0,0,1,3.071-3.244c1.696,0,3.218,3.241,3.218,3.244.207.304-14.028-30.083-19.452-41.657,1.85,8.339,7.144,18.586,7.144,18.586" fill="#4ca258"/><path d="M431.16554,236.05375a3.15857,3.15857,0,0,1,3.076-3.005c1.037,0,2.847,1.953,2.944,2.277l-.425-.899-.002-.004-14.612-30.866c.375,1.001,1.025,3.554,1.236,9.51.229,6.48,4.572,16.346,6.659,20.74a3.30535,3.30535,0,0,1,1.103,2.247c.006.084.01.169.01.255,0-.086.005-.171.011-.255" fill="#4ca258"/><rect x="289.55433" y="302.19074" width="8.85001" height="23.041" fill="#eb9a59"/><path d="M289.55513,309.04105a3.31523,3.31523,0,0,1,1.231,2.601,3.09112,3.09112,0,1,1,6.173,0,3.29867,3.29867,0,0,1,1.446-2.758v-9.135h-8.85Z" fill="#d17f42"/><path d="M324.73774,304.22755a3.17648,3.17648,0,0,0-3.086,3.26,3.09111,3.09111,0,1,0-6.173,0,3.0916,3.0916,0,1,0-6.174,0,3.09064,3.09064,0,1,0-6.172,0,3.09112,3.09112,0,1,0-6.173,0,3.09112,3.09112,0,1,0-6.173,0,3.09112,3.09112,0,1,0-6.173,0,3.09158,3.09158,0,1,0-6.174,0,3.09112,3.09112,0,1,0-6.173,0,3.09112,3.09112,0,1,0-6.173,0,3.17583,3.17583,0,0,0-3.086-3.26c-1.705,0-3.296,3.26-3.296,3.26l33.616-72.774s35.327,73.373,34.918,72.774c0-.005-1.803-3.26-3.508-3.26" fill="#82c66d"/><path d="M275.24855,288.02055a3.17752,3.17752,0,0,1,3.087,3.261,3.09117,3.09117,0,1,1,6.173,0,3.09117,3.09117,0,1,1,6.173,0,3.0907,3.0907,0,1,1,6.172,0,3.09165,3.09165,0,1,1,6.174,0,3.09117,3.09117,0,1,1,6.173,0,3.09117,3.09117,0,1,1,6.173,0,3.17752,3.17752,0,0,1,3.087-3.261,1.51517,1.51517,0,0,1,.554.113c-10.347-21.56-25.687-53.42-25.687-53.42l-24.711,53.494c3.054-.596,3.546,1.402,3.546,3.074a3.17738,3.17738,0,0,1,3.086-3.261" fill="#4ca258"/><polygon points="303.129 209.088 303.107 209.088 303.107 208.562 303.129 209.088" fill="#0b1436"/><polygon points="296.955 209.088 296.935 209.088 296.935 208.562 296.955 209.088" fill="#0b1436"/><path d="M267.86763,274.17286c3.726-1.091,4.295,1.089,4.295,2.89a3.09117,3.09117,0,1,1,6.173,0,3.09117,3.09117,0,1,1,6.173,0,3.09069,3.09069,0,1,1,6.172,0,3.09117,3.09117,0,1,1,6.173,0,3.09163,3.09163,0,1,1,6.174,0,3.09117,3.09117,0,1,1,6.173,0,3.09117,3.09117,0,1,1,6.173,0,3.17752,3.17752,0,0,1,3.087-3.261c1.704,0,3.104,3.261,3.104,3.261.004,0-27.903-59.906-27.903-59.906l-26.486,57.337-1.187,2.569s1.295-2.719,1.879-2.89" fill="#82c66d"/><path d="M299.91066,259.97175a3.16192,3.16192,0,0,1,3.072,3.245,3.07614,3.07614,0,1,1,6.143,0,3.16255,3.16255,0,0,1,3.072-3.245,2.97743,2.97743,0,0,1,2.036,1.348c-7.793-16.73-19.172-41.157-20.453-43.907l-9.846,20.801-10.65,23.055a2.948,2.948,0,0,1,2.054-1.297,3.16175,3.16175,0,0,1,3.071,3.245,3.0766,3.0766,0,1,1,6.144,0,3.07614,3.07614,0,1,1,6.143,0,3.07614,3.07614,0,1,1,6.143,0,3.16175,3.16175,0,0,1,3.071-3.245" fill="#4ca258"/><path d="M315.41554,251.87113c.256.374-21.514-46.06-21.514-46.06l-21.634,45.707s1.375-2.892,3.071-2.892a3.16175,3.16175,0,0,1,3.071,3.245,3.07662,3.07662,0,1,1,6.144,0,3.07613,3.07613,0,1,1,6.143,0,3.07614,3.07614,0,1,1,6.143,0,3.07614,3.07614,0,1,1,6.143,0,3.07614,3.07614,0,1,1,6.143,0,3.16257,3.16257,0,0,1,3.072-3.245c1.697,0,3.218,3.242,3.218,3.245" fill="#82c66d"/><path d="M306.20366,232.82523a1.23467,1.23467,0,0,1,.383.073c-5.938-12.694-12.685-27.087-12.685-27.087l-12.818,27.08a1.50856,1.50856,0,0,1,.428-.066,3.15861,3.15861,0,0,1,3.076,3.005c.006.084.011.169.011.255q0-.129.009-.255a3.07734,3.07734,0,0,1,6.153,0c.005.084.009.169.009.255,0-.086.005-.171.011-.255a3.07786,3.07786,0,0,1,6.154,0c.006.084.01.169.01.255,0-.086.005-.171.011-.255a3.07633,3.07633,0,0,1,6.151,0c.007.084.011.169.011.255,0-.086.004-.171.011-.255a3.15847,3.15847,0,0,1,3.075-3.005" fill="#4ca258"/><path d="M309.14793,228.07136c-.097-.324-1.906-2.277-2.944-2.277a3.16081,3.16081,0,0,0-3.076,3.005c-.006.084-.01.168-.01.255,0-.087-.004-.171-.011-.255a3.07633,3.07633,0,0,0-6.151,0c-.006.084-.011.168-.011.255,0-.087-.004-.171-.01-.255a3.07786,3.07786,0,0,0-6.154,0c-.006.084-.011.168-.011.255,0-.087-.004-.171-.01-.255a3.07684,3.07684,0,0,0-6.152,0c-.006.084-.01.168-.01.255,0-.087-.005-.171-.011-.255a3.15938,3.15938,0,0,0-3.076-3.005c-1.622,0-3.332,3.005-3.332,3.005l15.656-33.077,14.886,31.446.002.005Z" fill="#82c66d"/><path d="M321.65184,307.48734a3.17644,3.17644,0,0,1,3.086-3.26c1.705,0,3.508,3.255,3.508,3.26.218.318-9.634-20.204-18.926-39.533-.049,7.175-.34,14.31-1.269,15.594,0,0-.488,7.511,7.639,22.76a3.09511,3.09511,0,0,1,2.875-2.081,3.17663,3.17663,0,0,1,3.087,3.26" fill="#4ca258"/><path d="M321.44383,276.80085c.079.172.121.262.121.262s-.043-.1-.121-.262" fill="#4da258"/><path d="M321.44383,276.80085c-1.152-2.477-10.289-22.092-17.775-38.162a34.64965,34.64965,0,0,0,5.457,13.232s.463,15.012-.013,24.434a3.36715,3.36715,0,0,1,.088.758,3.09117,3.09117,0,1,1,6.173,0,3.17753,3.17753,0,0,1,3.087-3.261c1.408,0,2.608,2.227,2.983,2.999" fill="#4ca258"/><path d="M303.107,228.79884a36.70091,36.70091,0,0,0,4.196,20.109,3.255,3.255,0,0,1,1.823,2.963,3.16257,3.16257,0,0,1,3.072-3.245c1.696,0,3.218,3.242,3.218,3.245.207.303-14.028-30.084-19.452-41.658,1.85,8.34,7.143,18.586,7.143,18.586" fill="#4ca258"/><path d="M303.12843,228.79884a3.15913,3.15913,0,0,1,3.075-3.005c1.038,0,2.848,1.953,2.945,2.277l-.425-.898-.002-.005-14.612-30.866c.375,1.002,1.025,3.554,1.236,9.51.229,6.48,4.572,16.346,6.659,20.74a3.30936,3.30936,0,0,1,1.103,2.247c.006.085.01.169.01.256,0-.087.004-.171.011-.256" fill="#4ca258"/><rect x="244.34535" y="322.11976" width="8.849" height="23.04199" fill="#eb9a59"/><path d="M244.34614,328.97175a3.31446,3.31446,0,0,1,1.23,2.601,3.09117,3.09117,0,1,1,6.173,0,3.29733,3.29733,0,0,1,1.446-2.758v-9.136h-8.849Z" fill="#d17f42"/><path d="M279.52873,324.15725a3.17752,3.17752,0,0,0-3.087,3.261,3.09117,3.09117,0,1,0-6.173,0,3.09117,3.09117,0,1,0-6.173,0,3.09117,3.09117,0,1,0-6.173,0,3.09117,3.09117,0,1,0-6.173,0,3.09117,3.09117,0,1,0-6.173,0,3.09115,3.09115,0,1,0-6.173,0,3.09117,3.09117,0,1,0-6.173,0,3.09164,3.09164,0,1,0-6.174,0,3.09117,3.09117,0,1,0-6.173,0,3.17654,3.17654,0,0,0-3.085-3.261c-1.706,0-3.297,3.261-3.297,3.261l33.617-72.775s35.326,73.373,34.918,72.775c0-.005-1.804-3.261-3.508-3.261" fill="#82c66d"/><path d="M230.03955,307.95124a3.17648,3.17648,0,0,1,3.086,3.26,3.09111,3.09111,0,1,1,6.173,0,3.09112,3.09112,0,1,1,6.173,0,3.09112,3.09112,0,1,1,6.173,0,3.09112,3.09112,0,1,1,6.173,0,3.0911,3.0911,0,1,1,6.173,0,3.09112,3.09112,0,1,1,6.173,0,3.17665,3.17665,0,0,1,3.087-3.26,1.50942,1.50942,0,0,1,.554.112c-10.346-21.559-25.686-53.42-25.686-53.42l-24.712,53.495c3.054-.596,3.546,1.401,3.546,3.073a3.17665,3.17665,0,0,1,3.087-3.26" fill="#4ca258"/><polygon points="257.918 229.019 257.897 229.019 257.897 228.493 257.918 229.019" fill="#0b1436"/><polygon points="251.745 229.019 251.725 229.019 251.725 228.493 251.745 229.019" fill="#0b1436"/><path d="M222.65764,294.10355c3.727-1.092,4.295,1.088,4.295,2.889a3.09111,3.09111,0,1,1,6.173,0,3.09112,3.09112,0,1,1,6.173,0,3.09064,3.09064,0,1,1,6.172,0,3.0916,3.0916,0,1,1,6.174,0,3.0911,3.0911,0,1,1,6.173,0,3.09112,3.09112,0,1,1,6.173,0,3.09112,3.09112,0,1,1,6.173,0,3.17663,3.17663,0,0,1,3.087-3.26c1.704,0,3.104,3.26,3.104,3.26.004,0-27.903-59.905-27.903-59.905l-26.485,57.336-1.187,2.569s1.294-2.718,1.878-2.889" fill="#82c66d"/><path d="M254.70164,279.90235a3.16088,3.16088,0,0,1,3.071,3.244,3.07657,3.07657,0,1,1,6.144,0,3.16088,3.16088,0,0,1,3.071-3.244,2.97735,2.97735,0,0,1,2.036,1.348c-7.793-16.73-19.172-41.158-20.453-43.907l-9.846,20.8-10.649,23.055a2.94278,2.94278,0,0,1,2.053-1.296,3.16088,3.16088,0,0,1,3.071,3.244,3.07657,3.07657,0,1,1,6.144,0,3.07608,3.07608,0,1,1,6.143,0,3.07609,3.07609,0,1,1,6.143,0,3.16171,3.16171,0,0,1,3.072-3.244" fill="#4ca258"/><path d="M270.20555,271.80085c.256.374-21.514-46.059-21.514-46.059l-21.634,45.706s1.375-2.891,3.071-2.891a3.16167,3.16167,0,0,1,3.072,3.244,3.07609,3.07609,0,1,1,6.143,0,3.07607,3.07607,0,1,1,6.143,0,3.07609,3.07609,0,1,1,6.143,0,3.07609,3.07609,0,1,1,6.143,0,3.07657,3.07657,0,1,1,6.144,0,3.16085,3.16085,0,0,1,3.071-3.244c1.697,0,3.218,3.241,3.218,3.244" fill="#82c66d"/><path d="M260.99464,252.755a1.21487,1.21487,0,0,1,.383.074c-5.939-12.695-12.686-27.087-12.686-27.087l-12.818,27.079a1.51528,1.51528,0,0,1,.429-.066,3.1592,3.1592,0,0,1,3.075,3.005c.007.085.011.169.011.256,0-.087.003-.171.01-.256a3.07684,3.07684,0,0,1,6.152,0c.006.085.01.169.01.256,0-.087.004-.171.01-.256a3.07786,3.07786,0,0,1,6.154,0c.006.085.011.169.011.256,0-.087.004-.171.01-.256a3.07684,3.07684,0,0,1,6.152,0c.006.085.01.169.01.256,0-.087.005-.171.011-.256a3.1594,3.1594,0,0,1,3.076-3.005" fill="#4ca258"/><path d="M263.93794,248.00105c-.097-.323-1.905-2.276-2.943-2.276a3.16024,3.16024,0,0,0-3.077,3.005c-.005.083-.01.167-.01.254,0-.087-.004-.171-.01-.254a3.07684,3.07684,0,0,0-6.152,0c-.006.083-.01.167-.01.254,0-.087-.005-.171-.011-.254a3.07786,3.07786,0,0,0-6.154,0c-.006.083-.01.167-.01.254,0-.087-.005-.171-.011-.254a3.07633,3.07633,0,0,0-6.151,0c-.007.083-.011.167-.011.254,0-.087-.004-.171-.011-.254a3.15842,3.15842,0,0,0-3.075-3.005c-1.622,0-3.333,3.005-3.333,3.005l15.657-33.078,14.885,31.446.002.005Z" fill="#82c66d"/><path d="M276.44185,327.41805a3.17749,3.17749,0,0,1,3.087-3.261c1.704,0,3.508,3.256,3.508,3.261.217.317-9.635-20.205-18.927-39.534-.049,7.175-.34,14.311-1.269,15.594,0,0-.488,7.511,7.639,22.76a3.09649,3.09649,0,0,1,2.875-2.081,3.17752,3.17752,0,0,1,3.087,3.261" fill="#4ca258"/><path d="M276.23384,296.73054c.08.172.121.262.121.262s-.043-.1-.121-.262" fill="#4da258"/><path d="M276.23384,296.73054c-1.152-2.477-10.289-22.092-17.775-38.162a34.647,34.647,0,0,0,5.458,13.232s.462,15.013-.013,24.434a3.44011,3.44011,0,0,1,.087.758,3.09112,3.09112,0,1,1,6.173,0,3.17664,3.17664,0,0,1,3.087-3.26c1.409,0,2.609,2.226,2.983,2.998" fill="#4ca258"/><path d="M257.89793,248.72956a36.70644,36.70644,0,0,0,4.195,20.109,3.25546,3.25546,0,0,1,1.824,2.962,3.16085,3.16085,0,0,1,3.071-3.244c1.696,0,3.218,3.241,3.218,3.244.207.303-14.028-30.084-19.452-41.657,1.85,8.339,7.144,18.586,7.144,18.586" fill="#4ca258"/><path d="M257.91844,248.72956a3.15857,3.15857,0,0,1,3.076-3.005c1.037,0,2.847,1.953,2.944,2.276l-.425-.898-.002-.005-14.612-30.865c.375,1.001,1.025,3.554,1.236,9.51.229,6.48,4.572,16.346,6.659,20.739a3.30767,3.30767,0,0,1,1.103,2.248c.006.084.01.168.01.255,0-.087.005-.171.011-.255" fill="#4ca258"/><path d="M375.065,370.73055h22.573c.054-1.417,37.554-12.219,37.554-12.219-.715-68.283-11.812-122.703-89.674-122.344-77.858.36-88.958,54.113-89.674,122.344,0,0,37.499,10.802,37.553,12.219H315.97" fill="#fff"/><path d="M367.065,370.73055h22.573q.081-2.12549.081-4.282,0-4.0185-.073-7.937c-.499-25.157-3.855-46.729-18.702-58.453-5.508-4.349-12.599-7.344-21.712-8.661a79.317,79.317,0,0,0-11.714-.758c-44.033.204-51.371,29.758-52.129,67.872q-.078,3.912-.073,7.937,0,2.154.081,4.282H307.97" fill="#edf2fa"/><path d="M357.78175,236.60066c3.614,3.933,23.937,27.739,24.182,66.131.268,42.141-5.732,55.78-5.732,55.78l21.406,12.219,37.554-12.219c-.676-64.522-10.622-116.667-77.41-121.911" fill="#edf2fa"/><path d="M418.55176,328.53381q7.63768-.94025,15.22168-2.0589c-.03028-.33227-.05957-.66479-.08985-.99591-10.05273,1.50226-20.23242,2.74976-30.37793,3.73731,1.68164-11.2735-1.61621-17.07544-3.08789-19.01233,4.97559-.49225,9.94825-1.06787,14.91407-1.69428a.47487.47487,0,0,0,.07421.01471h.0127a.489.489,0,0,0,.20313-.05139c5.24316-.66412,10.4746-1.37866,15.667-2.18713-.06055-.32782-.11817-.658-.18067-.98425-5.04882.7857-10.13476,1.482-15.23144,2.13122-.38281-10.10419-3.9961-16.616-5.29981-18.64575q7.81933-1.03555,15.57715-2.32062-.16845-.48073-.33887-.95874c-10.36328,1.71-20.83105,3.094-31.33105,4.1377a24.71725,24.71725,0,0,0-6.32617-15.51972q7.37109-.795,14.72656-1.86645c.01367.00116.02637.00732.04.00732a.46172.46172,0,0,0,.07324-.00537.49992.49992,0,0,0,.0918-.03284c5.03613-.73706,10.06836-1.5487,15.09082-2.48083a.493.493,0,0,0,.16992-.06842c-.18066-.29645-.36914-.58667-.55273-.87982-4.81543.89038-9.63868,1.67163-14.4668,2.38293-1.42676-7.97742-8.75684-14.35693-11.334-16.38238,3.63867-.6872,7.26562-1.43128,10.86718-2.28327a.48573.48573,0,0,0,.26758-.1781c-.2998-.23706-.60547-.47-.91211-.70233q-11.29834,2.65082-22.833,4.201c-4.01855-7.01349-12.0415-11.12818-15.28125-12.56256A65.66621,65.66621,0,0,0,374.69238,239.27a.49617.49617,0,0,0,.085-.06342c-.52636-.12579-1.06543-.24139-1.60058-.35968a64.04239,64.04239,0,0,1-26.39746,5.76667v-8.43793c-.33448-.001-.66309-.00745-1-.00641v8.4209a64.07031,64.07031,0,0,1-26.00782-5.94525c-.44482.09192-.88281.18957-1.32226.28644a.49175.49175,0,0,0,.26465.33868,65.93489,65.93489,0,0,0,6.70752,2.748c-10.58106,4.80139-14.26807,11.37158-15.23535,13.52887q-9.72731-1.41064-19.314-3.583l-1.418-.32379c-.30859.23053-.62207.45715-.92578.69238a.492.492,0,0,0,.27832.18512l1.84277.4209c1.11133.25409,2.23.47619,3.34473.7146A33.5261,33.5261,0,0,0,281.959,270.22736c-2.14209-.3498-4.28418-.69715-6.42382-1.08234l-1.90528-.34375c-.18652.29236-.37646.582-.55908.87775a.49342.49342,0,0,0,.17334.069l2.11328.38134c2.26367.4076,4.53028.77826,6.79639,1.14631.01611.00549.02783.01666.04443.02069a.49481.49481,0,0,0,.11817.01416c.00781,0,.01464-.00336.022-.00373q8.03321,1.3006,16.08594,2.2627c-3.729,6.11169-5.19287,13.63074-5.52588,15.605q-12.9126-1.4002-25.69043-3.46167l-1.6792-.27356c-.11377.31159-.22315.6272-.33447.9411a.4792.4792,0,0,0,.0791.02973l1.77441.28906c4.2749.69464,8.57178,1.31872,12.87842,1.90082-1.19092,1.86181-4.15772,7.63678-4.28906,18.83673-4.49707-.57294-8.98487-1.17945-13.44092-1.85864l-2.03418-.31055c-.063.32477-.12061.65466-.18164.98108l.01172.00427,2.05371.31348c4.59961.70147,9.23291,1.3255,13.876,1.91345a.49283.49283,0,0,0,.20117.04455h.001a.47245.47245,0,0,0,.05957-.012q6.45777.81464,12.93311,1.4798c-.99756,1.62719-2.4707,6.30169-.96094,19.19983-9.73535-.95191-19.49365-2.13874-29.10693-3.56116l-1.65528-.24414c-.00878-.001-.01709.00244-.02636.00183-.03076.33-.05957.6618-.08936.99292l1.62451.23865c4.59034.6792,9.21924,1.2893,13.85791,1.86364a202.14147,202.14147,0,0,0-1.83349,34.48755c.32373.0979.65039.19709.97656.29615a.48126.48126,0,0,0,.02734-.15711,200.999,200.999,0,0,1,1.82178-34.50366q7.32716.89484,14.67139,1.6142a.49322.49322,0,0,0,.30859.11212.43387.43387,0,0,0,.06153-.00391.49494.49494,0,0,0,.1748-.05792c2.31006.22223,4.62061.44464,6.9248.639.01465.001.02833.00195.043.00195a.49991.49991,0,0,0,.041-.998c-2.26465-.1911-4.53467-.41021-6.80469-.62817-1.79394-15.11756.59912-18.62061,1.10205-19.17169,4.22949.42486,8.45752.818,12.67334,1.14361a.25444.25444,0,0,0,.03906.002.49976.49976,0,0,0,.03711-.998c-8.77734-.67859-17.605-1.59808-26.38964-2.70117.12109-12.03009,3.64257-17.72773,4.39746-18.80835q6.06151.8052,12.15136,1.45752a.48455.48455,0,0,0,.06055.02173.59867.59867,0,0,0,.07227.00488c.01562,0,.0288-.00665.04394-.00806,10.68457,1.14618,21.41406,1.94391,32.11817,2.38831a.4971.4971,0,0,0,.36132.1676h.00782a.497.497,0,0,0,.34375-.13916c1.34179.05371,2.68457.118,4.02539.16064h.01562a.50012.50012,0,0,0,.01563-1c-1.28858-.04089-2.5791-.10308-3.86866-.15429.35157-7.7497,4.64307-15.42115,4.688-15.5.00293-.00482.00244-.0102.00489-.01508,4.85253.17944,9.70654.29144,14.56054.29144,3.73975,0,7.47949-.0722,11.21875-.17877.49951.91266,4.54151,8.535,4.665,16.043a.50062.50062,0,0,0,.5.49219h.00781a.49881.49881,0,0,0,.18653-.041.488.488,0,0,0,.15332.03021h.0166c10.45312-.35291,20.94434-1.05139,31.4043-2.07843.00781.0003.01367.00421.02148.00421a.49874.49874,0,0,0,.05566-.01123q7.71973-.75906,15.40528-1.763c.83789,1.2334,5.02832,7.93573,5.41406,18.63354-8.84473,1.11072-17.72461,2.03711-26.55762,2.71686a.49976.49976,0,0,0,.03711.998.25458.25458,0,0,0,.03907-.002q5.40234-.41536,10.82421-.94043c.834.93726,5.18262,6.54,3.26075,18.97883-2.40235.22955-4.80371.46057-7.19825.65985a.49987.49987,0,0,0,.04.998c.01465,0,.02832-.001.042-.00195,2.48925-.207,4.9873-.44592,7.48437-.68573a.4735.4735,0,0,0,.07227.006.4872.4872,0,0,0,.14355-.02582q7.33447-.70687,14.67188-1.6a99.28375,99.28375,0,0,1,4.24218,33.63458.5065.5065,0,0,0,.02539.16364c.33106-.09937.65528-.19666.98047-.29407A100.75069,100.75069,0,0,0,418.55176,328.53381Zm-39.60938-71.62072a.4971.4971,0,0,0,.24024-.06153l.00683-.00555q5.66456-.76776,11.28516-1.79444c1.22266.90644,10.12305,7.77424,11.667,16.2801q-15.45849,2.23782-30.97949,3.24664a22.9984,22.9984,0,0,0-5.582-16.26459q6.65771-.53073,13.27539-1.42413A.48259.48259,0,0,0,378.94238,256.91309Zm-52.07617-14.43567a64.11154,64.11154,0,0,0,35.42774,1.2077c1.21728.47961,11.17285,4.59076,15.81933,12.29388a248.56528,248.56528,0,0,1-51.90723,1.3664.49326.49326,0,0,0-.0957-.135.50093.50093,0,0,0-.707.02051c-.01611.0169-.03027.03405-.0459.051q-7.08837-.58319-14.13086-1.57513C312.35645,253.39606,316.31445,246.95483,326.86621,242.47742ZM282.957,270.39551a33.14638,33.14638,0,0,1,12.32959-16.46625q7.26123,1.51162,14.60791,2.58795a.47648.47648,0,0,0,.89258.13831q6.84814.97173,13.74707,1.55914a20.11257,20.11257,0,0,0-4.50781,16.377Q301.45654,273.37955,282.957,270.39551Zm42.42285,21.216c-10.4917-.43829-21.00781-1.218-31.48193-2.33221.356-2.03931,1.88476-9.68232,5.61475-15.5755q15.20141,1.7871,30.44482,2.39508C329.02,277.86279,325.69287,284.59937,325.37988,291.61151Zm-4.3247-16.96423a19.07785,19.07785,0,0,1,4.72021-16.33527q9.95874.79917,19.96387.80957c6.24414,0,12.48633-.2586,18.71191-.72656a.49538.49538,0,0,0,.13965.32422,22.2874,22.2874,0,0,1,5.56934,15.91864A392.91307,392.91307,0,0,1,321.05518,274.64728ZM362.4917,291.7674c-.26416-6.93177-3.50928-13.62494-4.52588-15.557q14.38184-.45072,28.73633-1.95429a24.08712,24.08712,0,0,1,6.585,15.48029C383.0293,290.735,372.74219,291.41852,362.4917,291.7674Z" fill="#afc4db"/><path d="M324.25391,321.26074l-.30078-.30664c4.916-4.84082,11.96972-7.21582,21.56347-7.25976l.002.42968C336.043,314.168,329.08691,316.502,324.25391,321.26074Z" fill="#303443"/><path d="M307.9707,242.42236l-.33593-.94238c10.66211-3.79053,23.40722-5.74609,37.88086-5.812l.0039,1C331.15918,236.7334,318.52539,238.66943,307.9707,242.42236Z" fill="#303443"/><path d="M375.065,370.73055h22.573q.081-2.12549.081-4.282,0-4.0185-.073-7.937c-.499-25.157-3.855-46.729-18.702-58.453-5.508-4.349-12.599-7.344-21.712-8.661a79.317,79.317,0,0,0-11.714-.758c-44.033.204-51.371,29.758-52.129,67.872q-.078,3.912-.073,7.937,0,2.154.081,4.282H315.97" fill="#fff"/><path d="M375.065,370.73055h22.573q.081-2.12549.081-4.282,0-4.0185-.073-7.937c-.499-25.157-3.855-46.729-18.702-58.453-5.508-4.349-12.599-7.344-21.712-8.661a79.317,79.317,0,0,0-11.714-.758c-44.033.204-51.371,29.758-52.129,67.872q-.078,3.912-.073,7.937,0,2.154.081,4.282H315.97" fill="#fff"/><path d="M315.97,370.73055a63.772,63.772,0,0,1-1.167-12.219c0-24.635,3.034-44.475,30.715-44.602,27.682-.129,30.714,19.967,30.714,44.602a63.69363,63.69363,0,0,1-1.167,12.219" fill="#edf2fa"/><path d="M326.75,356.375a.49576.49576,0,0,1-.25586-.07031l-11.72851-6.998a.50009.50009,0,1,1,.51171-.85937l11.72852,6.998a.5.5,0,0,1-.25586.92969Z" fill="#89acc6"/><path d="M320.02246,352.377a.56734.56734,0,0,1-.05762-.00293.50043.50043,0,0,1-.44043-.55371,38.27832,38.27832,0,0,1,5.65625-16.127.49988.49988,0,0,1,.84571.5332,37.31094,37.31094,0,0,0-5.50782,15.707A.50089.50089,0,0,1,320.02246,352.377Z" fill="#89acc6"/><path d="M321.71875,371.14941a.50054.50054,0,0,1-.49414-.42871,38.92262,38.92262,0,0,1-.01074-11.09961,38.47756,38.47756,0,0,1,1.3916-6.10254.49973.49973,0,1,1,.95312.30079,37.47522,37.47522,0,0,0-1.35449,5.94433,37.89134,37.89134,0,0,0,.01074,10.81446.50081.50081,0,0,1-.42382.5664A.59894.59894,0,0,1,321.71875,371.14941Z" fill="#89acc6"/><path d="M328.25781,339.95117a.491.491,0,0,1-.25683-.07129.49868.49868,0,0,1-.17188-.68554,14.55478,14.55478,0,0,1,5.78906-5.47071,14.21719,14.21719,0,0,1,4.84278-1.47461.49966.49966,0,0,1,.11914.99219,13.26134,13.26134,0,0,0-4.50488,1.37109,13.56132,13.56132,0,0,0-5.38868,5.09571A.50033.50033,0,0,1,328.25781,339.95117Z" fill="#89acc6"/><path d="M368.1748,332.44531a.49963.49963,0,0,1-.44042-.26269A15.75288,15.75288,0,0,0,364.25,327.7959a16.12284,16.12284,0,0,0-7.99414-3.73828.49994.49994,0,0,1,.16406-.98633,17.11412,17.11412,0,0,1,8.48926,3.97266,16.75517,16.75517,0,0,1,3.70605,4.66406.4998.4998,0,0,1-.44043.7373Z" fill="#89acc6"/><path d="M368.53809,352.55371A.50029.50029,0,0,1,368.04,352a15.79707,15.79707,0,0,0-.38086-5.59082,16.15073,16.15073,0,0,0-4.46-7.61328.5.5,0,0,1,.69531-.71875,17.14013,17.14013,0,0,1,4.7334,8.08789,16.76437,16.76437,0,0,1,.40625,5.94238A.499.499,0,0,1,368.53809,352.55371Z" fill="#89acc6"/><path d="M367.48828,370.83105a.54187.54187,0,0,1-.10449-.01074.50033.50033,0,0,1-.38574-.59277A33.99417,33.99417,0,0,0,366.31348,353.5a.50024.50024,0,1,1,.959-.28516,35.02259,35.02259,0,0,1,.7041,17.21973A.5002.5002,0,0,1,367.48828,370.83105Z" fill="#89acc6"/><path d="M354.43066,327.57129a.49561.49561,0,0,1-.17382-.03125,25.31657,25.31657,0,0,0-17.25586-.13184.50037.50037,0,1,1-.334-.94336,26.321,26.321,0,0,1,17.9375.1377.5.5,0,0,1-.17383.96875Z" fill="#89acc6"/><path d="M340.22168,337.85059a.49954.49954,0,0,1-.47168-.334l-7.56152-21.47949a.5.5,0,1,1,.94336-.332l7.56152,21.47949a.49971.49971,0,0,1-.30566.6377A.49462.49462,0,0,1,340.22168,337.85059Z" fill="#89acc6"/><path d="M363.28613,355.38379a.49992.49992,0,0,1-.21289-.95215l12.72949-6.002a.49976.49976,0,0,1,.42579.90429l-12.7295,6.002A.50066.50066,0,0,1,363.28613,355.38379Z" fill="#89acc6"/><path d="M351.19922,337.85156a.50724.50724,0,0,1-.16406-.02734.501.501,0,0,1-.3086-.63672l7.44336-21.48047a.50032.50032,0,0,1,.94531.32813l-7.44335,21.48047A.50167.50167,0,0,1,351.19922,337.85156Z" fill="#89acc6"/><path d="M330.7959,343.29883a.49985.49985,0,0,1-.39942-.19922L319.042,327.99219a.5.5,0,1,1,.79883-.60156l11.35449,15.10742a.5.5,0,0,1-.39941.80078Z" fill="#89acc6"/><path d="M360.28613,343.29883a.5.5,0,0,1-.39941-.80078l11.35449-15.10742a.5.5,0,1,1,.79883.60156l-11.35449,15.10742A.49985.49985,0,0,1,360.28613,343.29883Z" fill="#89acc6"/><path d="M319.794,295.60938l12.43847,20.52148a.49993.49993,0,0,0,.85547-.51758l-12.394-20.44818q-.46143.201-.91211.4104C319.78711,295.58649,319.7876,295.59869,319.794,295.60938Z" fill="#afc4db"/><path d="M397.25391,348.38379l-21.23828-.00195a.5.5,0,0,0,0,1l21.2705.00195c.00977,0,.01856-.00507.02832-.00562C397.2959,349.0451,397.27441,348.71521,397.25391,348.38379Z" fill="#afc4db"/><path d="M370.72754,295.16345l-12.51172,20.4469a.501.501,0,0,0,.166.6875.50041.50041,0,0,0,.6875-.166L371.626,295.61133a.3326.3326,0,0,0,.01465-.04169C371.34277,295.42865,371.03223,295.29871,370.72754,295.16345Z" fill="#afc4db"/><path d="M392.11523,319.33081l-.00781.00122-20.64551,7.89258a.49984.49984,0,1,0,.35743.93359l20.62793-7.886C392.33984,319.95593,392.22754,319.64307,392.11523,319.33081Z" fill="#afc4db"/><path d="M315.02148,348.377l-21.23925-.002c-.02.32959-.03516.66443-.05371.99567.00732.00036.01367.00433.02148.00433l21.27148.002a.5.5,0,0,0,0-1Z" fill="#afc4db"/><path d="M298.63184,320.27118l20.63086,7.887a.49983.49983,0,0,0,.35742-.93359L298.98,319.33405C298.86523,319.64783,298.7417,319.95337,298.63184,320.27118Z" fill="#afc4db"/><path d="M363.81,370.73055a39.39021,39.39021,0,0,0,.723-7.564c0-15.252-1.877-27.694-19.015-27.614-17.138.078-19.016,12.362-19.016,27.614a39.39021,39.39021,0,0,0,.723,7.564" fill="#89acc6"/><path d="M398.1377,370.75l-1-.03906c.05371-1.38672.08105-2.82129.08105-4.2627,0-2.88574-.02344-5.47851-.07227-7.92676a181.41326,181.41326,0,0,0-1.73144-23.43261l.98828-.14844a182.31877,182.31877,0,0,1,1.74316,23.56152c.04883,2.45508.07227,5.05371.07227,7.94629C398.21875,367.90234,398.19141,369.34961,398.1377,370.75Z" fill="#303443"/><g opacity="0.5"><g clip-path="url(#clip-path)"><path d="M480.16945,242.05476c-5.701-8.575-10.848-16.886-16.402-24.847-5.492-7.978-11.236-15.625-17.302-23.01-6.077-7.377-12.464-14.496-19.215-21.444-6.727-6.999-13.866-13.677-21.147-20.963a87.90936,87.90936,0,0,1,27.698,13.208,114.139,114.139,0,0,1,38.819,47.315,88.07859,88.07859,0,0,1,7.549,29.741" fill="#fff"/></g></g><path d="M345.52485,111.98734a166.90942,166.90942,0,0,1,20,1.208,165.143,165.143,0,0,0,0,327.853,165.13811,165.13811,0,1,1-20-329.061" fill="#e2f2fc"/><path d="M340.358,442.16805q-1.35-.04048-2.695-.102-.70955-.033-1.416-.074-1.287-.0705-2.566-.162c-.457-.032-.914-.063-1.37-.099-.957-.077-1.91-.164-2.862-.255-.333-.033-.667-.06-.999-.094q-1.911-.195-3.806-.435c-.303-.038-.603-.083-.905-.123q-1.45051-.1905-2.892-.404c-.452-.067-.903-.141-1.353-.212q-1.23-.195-2.452-.406c-.474-.083-.947-.166-1.418-.253q-1.23449-.22652-2.46-.471c-.434-.087-.868-.17-1.301-.26q-1.563-.32248-3.115-.677c-.195-.044-.389-.084-.583-.129q-1.80749-.4185-3.599-.878c-.423-.109-.843-.223-1.264-.334q-1.188-.3135-2.369-.641-.72451-.204-1.447-.414-1.09652-.318-2.187-.65c-.485-.149-.971-.296-1.455-.449-.76-.24-1.517-.488-2.273-.738-.429-.142-.859-.28-1.286-.426q-1.69647-.576-3.376-1.188c-.379-.139-.755-.285-1.133-.427-.775-.289-1.55-.581-2.319-.881-.497-.194-.992-.395-1.487-.593q-.97351-.393-1.942-.794c-.518-.216-1.033-.434-1.549-.656-.624-.267-1.245-.541-1.866-.816-.512-.227-1.025-.452-1.533-.685-.662-.301-1.319-.612-1.976-.922-.605-.287-1.211-.573-1.812-.866-.869-.423-1.734-.85-2.594-1.289-.528-.268-1.051-.546-1.575-.82-.55-.287-1.099-.574-1.645-.867-.554-.298-1.103-.6-1.653-.904q-.762-.42149-1.521-.85-.83848-.47551-1.674-.958c-.484-.281-.965-.569-1.446-.856-.564-.336-1.13-.669-1.689-1.011-.425-.26-.844-.527-1.266-.79q-1.68-1.05-3.335-2.137c-.387-.255-.775-.506-1.159-.764-.599-.4-1.192-.809-1.785-1.218q-.582-.4005-1.161-.804-.894-.6285-1.78-1.268c-.363-.262-.723-.525-1.084-.79-.608-.447-1.215-.894-1.818-1.349-.283-.214-.562-.432-.844-.647q-3.2655-2.5005-6.403-5.157c-.229-.194-.46-.386-.688-.581q-.9435-.81-1.876-1.635c-.252-.224-.504-.447-.756-.672q-.939-.837-1.866-1.69c-.205-.189-.407-.379-.611-.57q-4.40553-4.0995-8.508-8.512c-.135-.146-.27-.289-.405-.436q-.942-1.02-1.865-2.057c-.137-.152-.273-.306-.408-.459q-.95851-1.0815-1.899-2.178l-.06-.071q-4.14-4.848-7.906-10.012c-.063-.088-.128-.176-.191-.263q-.8985-1.2375-1.776-2.493c-.031-.045-.062-.091-.094-.136q-4.6125-6.6225-8.582-13.702c-.018-.029-.033-.06-.05-.089a164.09467,164.09467,0,0,1-14.079-33.322l-.003-.01.813-.923c6.574.102,19.527-2.988,37.024-7.062a165.2769,165.2769,0,0,0,140.451,124.746q-7.17751.867-14.535,1.113-.435.0135-.871.026c-1.527.043-3.057.07-4.594.07-1.313,0-2.623-.02-3.929-.05-.414-.01-.825-.026-1.238-.039" fill="#f0f5f9"/><path d="M345.52485,111.98744a165.13451,165.13451,0,1,0,165.135,165.135,165.13569,165.13569,0,0,0-165.13495-165.135m0,322.997a157.863,157.863,0,1,1,157.863-157.862,157.86192,157.86192,0,0,1-157.863,157.862" fill="#d5e5f2"/><path d="M460.46724,494.42875h-229.885a11.99945,11.99945,0,0,1-11.347-15.903l24.53-71.322h203.519l24.531,71.322a12.00046,12.00046,0,0,1-11.348,15.903" fill="#bc6a3b"/><path d="M471.815,478.52544l-24.53-71.321h-40l24.53,71.321a11.9996,11.9996,0,0,1-11.348,15.903h40a11.9996,11.9996,0,0,0,11.348-15.903" fill="#9f5325"/><path d="M451.54933,473.95315a6,6,0,1,1-6-6,6.00027,6.00027,0,0,1,6,6" fill="#8c3e1e"/><path d="M421.54933,473.95315a6,6,0,1,1-6-6,6.00027,6.00027,0,0,1,6,6" fill="#9f5325"/><path d="M391.54933,473.95315a6,6,0,1,1-6-6,6.00027,6.00027,0,0,1,6,6" fill="#9f5325"/><g opacity="0.5"><g clip-path="url(#clip-path-2)"><path d="M488.48875,293.64454a29.37539,29.37539,0,0,1-4.138-8.346,40.25633,40.25633,0,0,1-1.717-8.21,39.72214,39.72214,0,0,1-.023-8.383,29.16565,29.16565,0,0,1,2.341-9.021,21.89523,21.89523,0,0,1,5.437,7.799,29.19729,29.19729,0,0,1,2.189,8.572,29.56684,29.56684,0,0,1-.393,8.84,22.10549,22.10549,0,0,1-3.696,8.749" fill="#fff"/></g></g><rect x="252.69434" y="330.68457" width="1" height="13.23438" fill="#303443"/><rect x="462.38135" y="326.62402" width="1" height="11.52051" fill="#303443"/><path d="M296.38184,331.01855l-.97657-.21679c3.67676-16.53418,9.94141-24.41992,10.20606-24.748l.77734.62891C306.3252,306.76074,300.002,314.7373,296.38184,331.01855Z" fill="#303443"/><path d="M314.56836,364.40332a108.58207,108.58207,0,0,1-.14941-13.22363l.998.06152a107.70762,107.70762,0,0,0,.14746,13.08594Z" fill="#303443"/></svg>